<svg viewBox="0 0 89 90" fill="none" xmlns="http://www.w3.org/2000/svg">
<path d="M86.59 49.78C86.17 49.49 85.81 49.28 85.46 49.07C85.39 49 85.32 49 85.25 48.93L84.61 48.51L84.12 48.15L49 25.28L32.51 42.51L32.37 42.65C31.9324 43.0816 31.6334 43.634 31.5113 44.2364C31.3892 44.8389 31.4496 45.4641 31.6847 46.032C31.9199 46.6 32.319 47.0849 32.8312 47.4248C33.3434 47.7646 33.9453 47.944 34.56 47.94C34.9867 47.9473 35.4099 47.8617 35.8002 47.689C36.1905 47.5163 36.5385 47.2607 36.82 46.94V46.94L49.88 33.33L81.93 54.33C79.7305 62.8251 74.7034 70.3179 67.6767 75.5744C60.65 80.8309 52.0426 83.5376 43.2721 83.2489C34.5016 82.9601 26.0909 79.6931 19.4252 73.9858C12.7594 68.2786 8.23605 60.4714 6.60001 51.85V51.71C6.60001 51.64 6.60001 51.64 6.53001 51.57C6.32081 50.8073 5.83824 50.1483 5.1743 49.7186C4.51036 49.2888 3.71149 49.1185 2.93001 49.24C2.1078 49.3753 1.37192 49.8289 0.881591 50.5026C0.391264 51.1763 0.185931 52.016 0.310016 52.84C0.310016 52.98 0.380016 53.13 0.380016 53.27C2.34655 63.7051 7.95497 73.1027 16.2055 79.7876C24.456 86.4725 34.8124 90.0102 45.4284 89.77C56.0445 89.5298 66.2303 85.5274 74.17 78.4762C82.1098 71.425 87.2874 61.7834 88.78 51.27C88.14 50.77 87.3 50.27 86.59 49.78Z" fill="white"/>
<path d="M88.92 36.93C88.9245 36.892 88.9205 36.8535 88.9084 36.8172C88.8963 36.7809 88.8764 36.7477 88.85 36.72H88.92C87.0041 26.2617 81.4303 16.8261 73.1955 10.1005C64.9606 3.37495 54.6018 -0.201856 43.9716 0.00978563C33.3414 0.221428 23.1331 4.20771 15.1725 11.2557C7.21188 18.3037 2.01808 27.9538 0.519989 38.48C1.29999 38.97 2.07999 39.4 2.84999 39.89C3.01112 39.9959 3.17804 40.0927 3.34999 40.18C3.41999 40.18 3.41999 40.25 3.48999 40.25L40.42 64.39L56.94 47.16L57.08 47.02C57.5409 46.6033 57.8611 46.0537 57.9962 45.4471C58.1313 44.8406 58.0748 44.2071 57.8344 43.6341C57.594 43.0611 57.1816 42.5769 56.6542 42.2483C56.1267 41.9198 55.5103 41.7631 54.89 41.8C54.4632 41.792 54.0398 41.8773 53.6494 42.0501C53.259 42.2228 52.9111 42.4787 52.63 42.8V42.8L39.43 56.42L7.42999 35.53C9.62191 27.0734 14.6148 19.6092 21.5941 14.3549C28.5735 9.1007 37.1273 6.36659 45.8603 6.59863C54.5932 6.83068 62.9898 10.0152 69.6803 15.6326C76.3708 21.2501 80.9602 28.969 82.7 37.53V37.53C82.6888 37.6997 82.7126 37.8699 82.77 38.03C82.9208 38.853 83.3919 39.5826 84.0799 40.0587C84.7679 40.5349 85.6166 40.7187 86.44 40.57C86.8421 40.4944 87.2253 40.3402 87.5677 40.1162C87.9102 39.8922 88.205 39.6028 88.4354 39.2647C88.6658 38.9265 88.8272 38.5462 88.9103 38.1456C88.9935 37.745 88.9968 37.3319 88.92 36.93V36.93Z" fill="white"/>
</svg>
